<?xml version="1.0" encoding="utf-8"?>
<!-- Generator: Adobe Illustrator 26.5.1, SVG Export Plug-In . SVG Version: 6.00 Build 0)  -->
<svg version="1.1" id="Layer_1" xmlns="http://www.w3.org/2000/svg" xmlns:xlink="http://www.w3.org/1999/xlink" x="0px" y="0px"
	 viewBox="0 0 512 512" style="enable-background:new 0 0 512 512;" xml:space="preserve">
<style type="text/css">
	.st0{fill-rule:evenodd;clip-rule:evenodd;fill:#00A7E7;}
</style>
<path class="st0" d="M256,512C114.8,512,0,397.2,0,256S114.8,0,256,0s256,114.8,256,256S397.2,512,256,512z M388.8,345.9
	c3.2,0,5.7-2.6,5.7-5.7V179.5L264.2,282.9c-2.4,1.9-5.3,2.9-8.2,2.9s-5.8-1-8.2-2.9L117.5,179.5v160.7c0,3.2,2.6,5.7,5.7,5.7H388.8z
	 M368.8,166.1L256,255.6l-112.8-89.6H368.8z M421,171.8v168.4c0,17.8-14.4,32.2-32.2,32.2H123.2c-17.8,0-32.2-14.4-32.2-32.2V171.8
	c0-17.8,14.4-32.2,32.2-32.2h265.5C406.5,139.6,421,154,421,171.8z"/>
</svg>
