<?xml version="1.0" encoding="utf-8"?>
<!-- Generator: Adobe Illustrator 26.5.1, SVG Export Plug-In . SVG Version: 6.00 Build 0)  -->
<svg version="1.1" id="Ebene_1" xmlns="http://www.w3.org/2000/svg" xmlns:xlink="http://www.w3.org/1999/xlink" x="0px" y="0px"
	 viewBox="0 0 512 512" style="enable-background:new 0 0 512 512;" xml:space="preserve">
<style type="text/css">
	.st0{fill-rule:evenodd;clip-rule:evenodd;fill:#FFFFFF;}
</style>
<path class="st0" d="M295.6,144c-6.3,15.6-21.7,26.7-39.6,26.7c-17.9,0-33.2-11-39.6-26.7H64c-8.8,0-16-7.2-16-16
	c0-8.8,7.2-16,16-16h152.4c6.3-15.6,21.7-26.7,39.6-26.7c17.9,0,33.2,11,39.6,26.7H448c8.8,0,16,7.2,16,16c0,8.8-7.2,16-16,16H295.6
	z M48,256c0-8.8,7.2-16,16-16h213.3c8.8,0,16,7.2,16,16c0,8.8-7.2,16-16,16H64C55.2,272,48,264.8,48,256z M362.7,213.3
	c17.9,0,33.2,11,39.6,26.7H448c8.8,0,16,7.2,16,16c0,8.8-7.2,16-16,16h-45.8c-6.3,15.6-21.7,26.7-39.6,26.7
	c-23.6,0-42.7-19.1-42.7-42.7C320,232.4,339.1,213.3,362.7,213.3z M256,368c-8.8,0-16,7.2-16,16c0,8.8,7.2,16,16,16h170.7
	c8.8,0,16-7.2,16-16c0-8.8-7.2-16-16-16H256z M48,384c0-8.8,7.2-16,16-16h67.1c6.3-15.6,21.7-26.7,39.6-26.7
	c23.6,0,42.7,19.1,42.7,42.7s-19.1,42.7-42.7,42.7c-17.9,0-33.2-11-39.6-26.7H64C55.2,400,48,392.8,48,384z"/>
</svg>
