<?xml version="1.0" encoding="utf-8"?>
<!-- Generator: Adobe Illustrator 26.5.1, SVG Export Plug-In . SVG Version: 6.00 Build 0)  -->
<svg version="1.1" id="Layer_1" xmlns="http://www.w3.org/2000/svg" xmlns:xlink="http://www.w3.org/1999/xlink" x="0px" y="0px"
	 viewBox="0 0 512 512" style="enable-background:new 0 0 512 512;" xml:space="preserve">
<style type="text/css">
	.st0{fill-rule:evenodd;clip-rule:evenodd;fill:#00A7E7;}
</style>
<path class="st0" d="M256,512C114.8,512,0,397.2,0,256S114.8,0,256,0s256,114.8,256,256S397.2,512,256,512z M303.1,392.1
	c36.4-12.6,66.2-39.4,82.8-73.8h-58.6c-3.3,19.8-8.2,38-14.4,53.7C309.8,379.4,306.5,386.1,303.1,392.1z M126.2,318.3
	c16.6,34.4,46.4,61.2,82.8,73.8c-3.5-6-6.7-12.7-9.7-20.1c-6.3-15.7-11.2-33.9-14.4-53.7H126.2z M208.9,119.9
	c-36.4,12.6-66.2,39.4-82.8,73.8h58.6c3.3-19.8,8.2-38,14.4-53.7C202.2,132.6,205.5,125.9,208.9,119.9L208.9,119.9z M256,112
	c-10.5,0-22.8,14.5-32.1,37.8c-5.1,12.9-9.2,27.7-12.2,43.9h88.6c-2.9-16.2-7-31-12.2-43.9C278.8,126.5,266.5,112,256,112z M112,256
	c0,12.4,1.6,24.4,4.5,35.8h65c-1.1-11.6-1.6-23.6-1.6-35.8s0.6-24.2,1.6-35.8h-65C113.6,231.6,112,243.6,112,256z M208,291.8H304
	c1.1-11.6,1.7-23.6,1.7-35.8s-0.6-24.2-1.7-35.8H208c-1.1,11.6-1.7,23.6-1.7,35.8S206.9,280.2,208,291.8z M256,400
	c10.5,0,22.8-14.5,32.1-37.8c5.1-12.9,9.2-27.7,12.2-43.9h-88.6c2.9,16.2,7,31,12.2,43.9C233.2,385.5,245.5,400,256,400z M400,256
	c0-12.4-1.6-24.4-4.5-35.8h-65c1.1,11.6,1.6,23.6,1.6,35.8c0,12.2-0.6,24.2-1.6,35.8h65C398.4,280.4,400,268.4,400,256z
	 M385.8,193.7c-16.6-34.4-46.4-61.2-82.8-73.8c3.5,6,6.7,12.7,9.7,20.1c6.3,15.7,11.2,33.9,14.4,53.7L385.8,193.7L385.8,193.7z
	 M426.5,256c0,94-76.5,170.5-170.5,170.5C162,426.5,85.5,350,85.5,256S162,85.5,256,85.5S426.5,162,426.5,256z"/>
</svg>
